<?xml version="1.0" ?>
<svg xmlns="http://www.w3.org/2000/svg" xmlns:ev="http://www.w3.org/2001/xml-events" xmlns:xlink="http://www.w3.org/1999/xlink" baseProfile="full" height="241px" version="1.1" viewBox="-281.8015300000002 26.77372030159825 815.7200000000003 326.6026410786945" width="600px">
	<defs/>
	<path d="M -212.99153,237.20002 L -212.99153,73.659024" fill="none" stroke="red" stroke-width="2"/>
	<path d="M 465.10847,297.67693 C 453.30716,298.95655000000005 441.50609000000003,300.23614000000003 425.55112,302.09909000000005" fill="none" stroke="green" stroke-width="2"/>
	<path d="M 425.55112,302.09909000000005 C 409.59614000000005,303.96203 389.52687000000003,306.40351000000004 371.94870000000003,309.2452200000001" fill="none" stroke="blue" stroke-width="2"/>
	<path d="M 371.94870000000003,309.2452200000001 C 354.37053000000003,312.08693000000005 339.42091000000005,315.3066600000001 329.25221000000005,317.8246900000001" fill="none" stroke="black" stroke-width="2"/>
	<path d="M 329.25221000000005,317.8246900000001 C 319.08351000000005,320.34271000000007 313.7253400000001,322.1526400000001 304.81825000000003,323.3527100000001" fill="none" stroke="red" stroke-width="2"/>
	<path d="M 304.81825000000003,323.3527100000001 C 295.91115,324.5527800000001 283.45561000000004,325.1429000000001 271.65806000000003,325.29277000000013" fill="none" stroke="green" stroke-width="2"/>
	<path d="M 271.65806000000003,325.29277000000013 C 259.86052,325.4426300000001 248.72164000000004,325.15221000000014 231.32396000000003,323.0798400000001" fill="none" stroke="blue" stroke-width="2"/>
	<path d="M 231.32396000000003,323.0798400000001 C 213.92628000000002,321.0074800000001 190.27095000000003,317.1532800000001 169.26541000000003,312.3816700000001" fill="none" stroke="black" stroke-width="2"/>
	<path d="M 169.26541000000003,312.3816700000001 C 148.25987000000003,307.6100500000001 129.82153000000002,301.8952900000001 110.41564000000002,295.8535600000001" fill="none" stroke="red" stroke-width="2"/>
	<path d="M 110.41564000000002,295.8535600000001 C 91.00975800000003,289.8118300000001 70.63148200000003,283.4417200000001 52.23331400000002,278.41807000000006" fill="none" stroke="green" stroke-width="2"/>
	<path d="M 52.23331400000002,278.41807000000006 C 33.835145000000026,273.3944200000001 17.43609100000002,269.7231300000001 3.3431036000000205,266.7953800000001" fill="none" stroke="blue" stroke-width="2"/>
	<path d="M 3.3431036000000205,266.7953800000001 C -10.74988399999998,263.8676200000001 -22.53599899999998,261.68358000000006 -34.12156299999998,259.82254000000006" fill="none" stroke="black" stroke-width="2"/>
	<path d="M -34.12156299999998,259.82254000000006 C -45.70712799999998,257.96150000000006 -57.063974999999985,256.42730000000006 -72.95847199999997,254.12706000000006" fill="none" stroke="red" stroke-width="2"/>
	<path d="M -72.95847199999997,254.12706000000006 C -88.85296799999998,251.82681000000005 -109.27033999999998,248.76252000000005 -125.34992999999997,246.59525000000005" fill="none" stroke="green" stroke-width="2"/>
	<path d="M -125.34992999999997,246.59525000000005 C -141.42950999999996,244.42799000000005 -153.17041999999998,243.15786000000006 -163.61702999999997,242.26045000000005" fill="none" stroke="blue" stroke-width="2"/>
	<path d="M -163.61702999999997,242.26045000000005 C -174.06362999999996,241.36304000000004 -183.21529999999996,240.83840000000004 -191.22862999999998,240.05712000000005" fill="none" stroke="black" stroke-width="2"/>
	<path d="M -191.22862999999998,240.05712000000005 C -199.24196999999998,239.27585000000005 -206.11683,238.23792000000006 -212.99152999999998,237.20002000000005" fill="none" stroke="red" stroke-width="2"/>
	<path d="M 465.10847,105.90802 L 465.10847,297.67693" fill="none" stroke="green" stroke-width="2"/>
	<path d="M -212.99153,73.659024 C -200.90398000000002,72.927747 -188.81643000000003,72.19646900000001 -176.05228,72.164904" fill="none" stroke="blue" stroke-width="2"/>
	<path d="M -176.05228,72.164904 C -163.28813,72.133334 -149.84816,72.801443 -139.3856,73.85673200000001" fill="none" stroke="black" stroke-width="2"/>
	<path d="M -139.3856,73.85673200000001 C -128.92305000000002,74.91202200000001 -121.43848000000001,76.354381 -114.44111000000001,77.13300400000001" fill="none" stroke="red" stroke-width="2"/>
	<path d="M -114.44111000000001,77.13300400000001 C -107.44374,77.91162700000001 -100.93393,78.02653600000001 -88.74612100000002,76.07138800000001" fill="none" stroke="green" stroke-width="2"/>
	<path d="M -88.74612100000002,76.07138800000001 C -76.55831600000002,74.11623900000001 -58.69257600000002,70.09107900000001 -46.12179600000002,67.42245000000001" fill="none" stroke="blue" stroke-width="2"/>
	<path d="M -46.12179600000002,67.42245000000001 C -33.551017000000016,64.75382000000002 -26.27550700000002,63.441769000000015 -15.208111000000017,61.858778000000015" fill="none" stroke="black" stroke-width="2"/>
	<path d="M -15.208111000000017,61.858778000000015 C -4.140714600000017,60.275787000000015 10.717806999999983,58.421948000000015 27.77474799999998,57.096471000000015" fill="none" stroke="red" stroke-width="2"/>
	<path d="M 27.77474799999998,57.096471000000015 C 44.83168899999998,55.77099500000001 64.08595399999999,54.973931000000015 81.59192799999998,54.84312300000001" fill="none" stroke="green" stroke-width="2"/>
	<path d="M 81.59192799999998,54.84312300000001 C 99.09790199999998,54.71231500000001 114.85454999999999,55.24773800000001 130.82259,56.534264000000015" fill="none" stroke="blue" stroke-width="2"/>
	<path d="M 130.82259,56.534264000000015 C 146.79063,57.820791000000014 163.36792,59.908529000000016 176.33202,61.368679000000014" fill="none" stroke="black" stroke-width="2"/>
	<path d="M 176.33202,61.368679000000014 C 189.29612,62.82882900000001 198.85675,63.687429000000016 210.68803,64.94703300000002" fill="none" stroke="red" stroke-width="2"/>
	<path d="M 210.68803,64.94703300000002 C 222.51932,66.20663700000001 236.62598,67.86764400000001 247.32143,69.15634500000002" fill="none" stroke="green" stroke-width="2"/>
	<path d="M 247.32143,69.15634500000002 C 258.01689,70.44504500000002 265.50275,71.38680200000002 275.99771,72.61812100000002" fill="none" stroke="blue" stroke-width="2"/>
	<path d="M 275.99771,72.61812100000002 C 286.49267,73.84943900000002 300.09711999999996,75.38296100000002 311.53108,76.99861300000002" fill="none" stroke="black" stroke-width="2"/>
	<path d="M 311.53108,76.99861300000002 C 322.96504,78.61426500000002 332.22783999999996,80.31192500000002 338.66877999999997,81.56753100000002" fill="none" stroke="red" stroke-width="2"/>
	<path d="M 338.66877999999997,81.56753100000002 C 345.10972,82.82313600000002 348.72844999999995,83.63660200000001 356.16373,84.97750500000002" fill="none" stroke="green" stroke-width="2"/>
	<path d="M 356.16373,84.97750500000002 C 363.599,86.31840800000002 374.87009,88.18996200000002 384.20105,89.48810900000002" fill="none" stroke="blue" stroke-width="2"/>
	<path d="M 384.20105,89.48810900000002 C 393.53201,90.78625600000002 400.9549,91.51482200000002 408.47481,92.59385000000002" fill="none" stroke="black" stroke-width="2"/>
	<path d="M 408.47481,92.59385000000002 C 415.99471,93.67287700000001 423.62248999999997,95.10338100000001 433.07963,97.38105400000002" fill="none" stroke="red" stroke-width="2"/>
	<path d="M 433.07963,97.38105400000002 C 442.53677,99.65872700000003 453.82235000000003,102.78330000000003 465.10847,105.90802000000002" fill="none" stroke="green" stroke-width="2"/>
</svg>
