<?xml version="1.0" ?>
<svg xmlns="http://www.w3.org/2000/svg" xmlns:cc="http://creativecommons.org/ns#" xmlns:dc="http://purl.org/dc/elements/1.1/" xmlns:ev="http://www.w3.org/2001/xml-events" xmlns:inkscape="http://www.inkscape.org/namespaces/inkscape" xmlns:rdf="http://www.w3.org/1999/02/22-rdf-syntax-ns#" xmlns:sodipodi="http://sodipodi.sourceforge.net/DTD/sodipodi-0.dtd" xmlns:svg="http://www.w3.org/2000/svg" xmlns:xlink="http://www.w3.org/1999/xlink" baseProfile="full" height="300mm" id="svg8" inkscape:version="1.0.1 (1.0.1+r74)" sodipodi:docname="table-1-spline.svg" version="1.1" viewBox="0 0 720 300" width="720mm">
	<defs/>
	<path d="M -212.99153,237.20002 L -212.99153,73.659024" fill="none" stroke="#000000" stroke-width="0.6781"/>
	<path d="M 465.10847,297.67693 A 4438.179111891962,4438.179111891962 0 0,0 425.55112,302.09909000000005 A 1289.2981091042116,1289.2981091042116 0 0,0 371.94870000000003,309.2452200000001 A 544.8263904271386,544.8263904271386 0 0,0 329.25221000000005,317.8246900000001 A 207.4831860838736,207.4831860838736 0 0,1 304.81825000000003,323.3527100000001 A 301.15345942251975,301.15345942251975 0 0,1 271.65806000000003,325.29277000000013 A 281.6232867086781,281.6232867086781 0 0,1 231.32396000000003,323.0798400000001 A 644.6542995027387,644.6542995027387 0 0,1 169.26541000000003,312.3816700000001 A 752.5609413840332,752.5609413840332 0 0,1 110.41564000000002,295.8535600000001 A 1792.4044773130202,1792.4044773130202 0 0,0 52.23331400000002,278.41807000000006 A 803.0779743325685,803.0779743325685 0 0,0 3.3431036000000205,266.7953800000001 A 818.4461730216557,818.4461730216557 0 0,0 -34.12156299999998,259.82254000000006 A 2675.175634567687,2675.175634567687 0 0,0 -72.95847199999997,254.12706000000006 A 5911.834389941091,5911.834389941091 0 0,0 -125.34992999999997,246.59525000000005 A 777.8375821369762,777.8375821369762 0 0,0 -163.61702999999997,242.26045000000005 A 3273.403225587226,3273.403225587226 0 0,1 -191.22862999999998,240.05712000000005 A 398.3545770686159,398.3545770686159 0 0,1 -212.99152999999998,237.20002000000005" fill="none" stroke="#000000" stroke-width="0.6781"/>
	<path d="M 465.10847,105.90802 L 465.10847,297.67693" fill="none" stroke="#000000" stroke-width="0.6781"/>
	<path d="M -212.99153,73.659024 A 627.1298771348538,627.1298771348538 0 0,1 -176.05228,72.164904 A 376.2594956801215,376.2594956801215 0 0,1 -139.3856,73.85673200000001 A 1179.6920284191817,1179.6920284191817 0 0,1 -114.44111000000001,77.13300400000001 A 85.9830486759062,85.9830486759062 0 0,0 -88.74612100000002,76.07138800000001 A 1012.0300800331437,1012.0300800331437 0 0,0 -46.12179600000002,67.42245000000001 A 409.467780780891,409.467780780891 0 0,1 -15.208111000000017,61.858778000000015 A 673.908141107034,673.908141107034 0 0,1 27.77474799999998,57.096471000000015 A 797.8905158616982,797.8905158616982 0 0,1 81.59192799999998,54.84312300000001 A 550.4870061084026,550.4870061084026 0 0,1 130.82259,56.534264000000015 A 1421.6190675747423,1421.6190675747423 0 0,1 176.33202,61.368679000000014 A 4840.507610516811,4840.507610516811 0 0,0 210.68803,64.94703300000002 A 2856.912765443883,2856.912765443883 0 0,1 247.32143,69.15634500000002 A 8443.11390326837,8443.11390326837 0 0,0 275.99771,72.61812100000002 A 1602.2913901714276,1602.2913901714276 0 0,1 311.53108,76.99861300000002 A 522.9459747937153,522.9459747937153 0 0,1 338.66877999999997,81.56753100000002 A 992.5964770283214,992.5964770283214 0 0,0 356.16373,84.97750500000002 A 781.1501098687195,781.1501098687195 0 0,0 384.20105,89.48810900000002 A 15924.151950781632,15924.151950781632 0 0,1 408.47481,92.59385000000002 A 258.75151147773505,258.75151147773505 0 0,1 433.07963,97.38105400000002 A 1050.1975801558353,1050.1975801558353 0 0,1 465.10847,105.90802000000002" fill="none" stroke="#000000" stroke-width="0.6781"/>
</svg>
